<svg width="35" height="34" viewBox="0 0 35 34" fill="none" xmlns="http://www.w3.org/2000/svg">
<path d="M17.6558 0C8.27176 0 0.655762 7.616 0.655762 17C0.655762 26.384 8.27176 34 17.6558 34C27.0398 34 34.6558 26.384 34.6558 17C34.6558 7.616 27.0398 0 17.6558 0ZM25.5438 11.56C25.2888 14.246 24.1838 20.774 23.6228 23.783C23.3848 25.058 22.9088 25.483 22.4668 25.534C21.4808 25.619 20.7328 24.888 19.7808 24.259C18.2848 23.273 17.4348 22.661 15.9898 21.709C14.3068 20.604 15.3948 19.992 16.3638 19.006C16.6188 18.751 20.9708 14.79 21.0558 14.433C21.0676 14.3789 21.066 14.3228 21.0512 14.2695C21.0364 14.2161 21.0088 14.1672 20.9708 14.127C20.8688 14.042 20.7328 14.076 20.6138 14.093C20.4608 14.127 18.0808 15.708 13.4398 18.836C12.7598 19.295 12.1478 19.533 11.6038 19.516C10.9918 19.499 9.83576 19.176 8.96876 18.887C7.89776 18.547 7.06476 18.36 7.13276 17.765C7.16676 17.459 7.59176 17.153 8.39076 16.83C13.3548 14.671 16.6528 13.243 18.3018 12.563C23.0278 10.591 23.9968 10.251 24.6428 10.251C24.7788 10.251 25.1018 10.285 25.3058 10.455C25.4758 10.591 25.5268 10.778 25.5438 10.914C25.5268 11.016 25.5608 11.322 25.5438 11.56Z" fill="#101010"/>
</svg>
